<svg width="128" height="128" viewBox="0 0 128 128" fill="none" xmlns="http://www.w3.org/2000/svg">
<g clip-path="url(#clip0_18_2)">
<path d="M67.18 94.77C59.26 94.77 52.9533 93.3033 48.26 90.37C43.64 87.4367 40.3033 83.11 38.25 77.39C36.27 71.5967 35.28 64.41 35.28 55.83C35.28 47.25 36.27 39.99 38.25 34.05C40.3033 28.0367 43.64 23.49 48.26 20.41C52.9533 17.33 59.26 15.79 67.18 15.79C70.04 15.79 72.8267 16.0467 75.54 16.56C78.3267 17.0733 80.6 17.99 82.36 19.31C84.1933 20.63 85.11 22.5367 85.11 25.03C85.11 26.8633 84.45 28.4033 83.13 29.65C81.81 30.8967 79.6833 31.52 76.75 31.52C75.1367 31.52 73.34 31.3367 71.36 30.97C69.38 30.53 67.07 30.31 64.43 30.31C59.2967 30.31 55.8867 32.4 54.2 36.58C52.5867 40.6867 51.78 47.1033 51.78 55.83C51.78 64.5567 52.8433 70.8267 54.97 74.64C57.0967 78.38 60.25 80.25 64.43 80.25C73.23 80.25 77.63 76.5467 77.63 69.14C77.63 65.7667 78.1433 63.4567 79.17 62.21L71.47 62.32C69.1967 62.3933 67.4367 61.9533 66.19 61C65.0167 60.0467 64.43 58.3967 64.43 56.05C64.43 53.7033 65.0167 52.0533 66.19 51.1C67.4367 50.1467 69.1967 49.67 71.47 49.67H83.13C85.6967 49.67 87.6033 50 88.85 50.66C90.0967 51.2467 90.9033 52.53 91.27 54.51C91.71 56.4167 91.93 59.3133 91.93 63.2C91.93 70.02 91.2333 75.7767 89.84 80.47C88.4467 85.1633 85.9533 88.72 82.36 91.14C78.84 93.56 73.78 94.77 67.18 94.77Z" fill="black"/>
<rect x="36" y="103" width="55" height="13" rx="5" fill="#EEDF14"/>
</g>
<defs>
<clipPath id="clip0_18_2">
<rect width="128" height="128" fill="white"/>
</clipPath>
</defs>
</svg>
